Coordinates
version=1
nRows=27
nColumns=38
inDegrees=no

Units are S.I. units (second, meters, Newtons, ...)
If the header above contains a line with 'inDegrees', this indicates whether rotational values are in degrees (yes) or radians (no).

endheader
time	pelvis_tilt	pelvis_list	pelvis_rotation	pelvis_tx	pelvis_ty	pelvis_tz	hip_flexion_r	hip_adduction_r	hip_rotation_r	knee_angle_r	ankle_angle_r	subtalar_angle_r	mtp_angle_r	hip_flexion_l	hip_adduction_l	hip_rotation_l	knee_angle_l	ankle_angle_l	subtalar_angle_l	mtp_angle_l	lumbar_extension	lumbar_bending	lumbar_rotation	arm_flex_r	arm_add_r	arm_rot_r	elbow_flex_r	pro_sup_r	wrist_flex_r	wrist_dev_r	arm_flex_l	arm_add_l	arm_rot_l	elbow_flex_l	pro_sup_l	wrist_flex_l	wrist_dev_l
0	0.0410887	1.0086	1.56425	0.938824	-0.713483	0.985145	0.34392	-0.0227906	-0.0557197	0.519712	-0.150948	0	0	0.88446	-0.00324381	-0.200246	0.178048	-0.299382	0	0	0.592832	-0.0385164	0.142689	-0.32879	-0.337836	-0.0307711	0.866122	1.44651	0	0	-0.383223	-0.144249	-0.572463	0.758811	1.32167	0	0
0.01	0.0350398	1.00452	1.57278	0.937321	-0.700992	0.985435	0.361287	-0.0315419	-0.0438405	0.563694	-0.174008	0	0	0.880677	0.0030429	-0.171039	0.182126	-0.303116	0	0	0.59703	-0.0477558	0.137772	-0.326331	-0.329984	-0.0260948	0.851259	1.44773	0	0	-0.384686	-0.146725	-0.576295	0.756325	1.31981	0	0
0.02	0.0241723	0.99507	1.59277	0.938465	-0.687228	0.98561	0.381824	-0.0404073	-0.0365346	0.6035	-0.204694	0	0	0.884128	0.0104624	-0.152247	0.1946	-0.304722	0	0	0.610194	-0.0696264	0.123711	-0.321303	-0.311566	-0.0175122	0.830148	1.45217	0	0	-0.397585	-0.157502	-0.583248	0.762692	1.31084	0	0
0.03	0.0187601	1.00022	1.5992	0.933566	-0.674604	0.98672	0.394152	-0.0555581	-0.0371922	0.650263	-0.250135	0	0	0.874085	0.0189082	-0.134862	0.214444	-0.295366	0	0	0.603537	-0.072213	0.124777	-0.323271	-0.312559	-0.0160132	0.815266	1.45332	0	0	-0.392364	-0.153845	-0.579783	0.756319	1.30632	0	0
0.04	0.00589649	0.980586	1.60206	0.932868	-0.664037	0.986356	0.440683	-0.0626327	-0.00425261	0.704099	-0.289158	0	0	0.892651	0.0189862	-0.123486	0.238995	-0.283876	0	0	0.610091	-0.0764535	0.114313	-0.313989	-0.31058	-0.00483693	0.810493	1.46085	0	0	-0.396083	-0.152318	-0.588153	0.750843	1.2911	0	0
0.05	-0.00143149	0.995669	1.62352	0.930104	-0.650172	0.98813	0.439188	-0.0786398	-0.019743	0.744199	-0.333027	0	0	0.872063	0.0339574	-0.109885	0.260332	-0.26453	0	0	0.603182	-0.0967799	0.11656	-0.316876	-0.297663	-0.00201548	0.778659	1.45797	0	0	-0.395608	-0.158896	-0.585996	0.761639	1.29226	0	0
0.06	-0.0165319	0.981745	1.62286	0.929692	-0.640284	0.988178	0.486716	-0.0834608	0.015634	0.804873	-0.37467	0	0	0.88555	0.0325202	-0.11272	0.282485	-0.245674	0	0	0.597979	-0.101884	0.107409	-0.297265	-0.297093	0.0185337	0.76641	1.46416	0	0	-0.398548	-0.154921	-0.59855	0.762952	1.27994	0	0
0.07	-0.0238027	0.985357	1.6301	0.927994	-0.628332	0.989301	0.506005	-0.0913968	0.021178	0.845666	-0.428199	0	0	0.878092	0.038307	-0.107752	0.301898	-0.227608	0	0	0.592507	-0.106386	0.109029	-0.299712	-0.294107	0.0245537	0.753636	1.46346	0	0	-0.391092	-0.156187	-0.597998	0.755881	1.27988	0	0
0.08	-0.0278249	0.990701	1.63491	0.926144	-0.616125	0.990507	0.524813	-0.0986868	0.0198063	0.888313	-0.487701	0	0	0.867027	0.0433849	-0.104389	0.317423	-0.210947	0	0	0.584917	-0.107939	0.110384	-0.30412	-0.291706	0.0278799	0.742953	1.46319	0	0	-0.382064	-0.155958	-0.59659	0.746495	1.27791	0	0
0.09	-0.035452	0.998477	1.63437	0.925268	-0.604342	0.992024	0.544365	-0.102911	0.0269028	0.930268	-0.538416	0	0	0.851096	0.0431896	-0.107441	0.3313	-0.197774	0	0	0.573997	-0.106638	0.118331	-0.303682	-0.289267	0.0348613	0.728522	1.4644	0	0	-0.371944	-0.154707	-0.596179	0.736533	1.2666	0	0
0.1	-0.0441665	1.00711	1.63063	0.924726	-0.59247	0.993802	0.563809	-0.10529	0.0368601	0.969427	-0.571746	0	0	0.831389	0.0408961	-0.12405	0.336027	-0.18066	0	0	0.563455	-0.103276	0.128694	-0.300741	-0.287352	0.0457135	0.710723	1.46657	0	0	-0.362881	-0.153401	-0.594758	0.725399	1.25224	0	0
0.11	-0.0484856	1.014	1.62602	0.923901	-0.580485	0.995564	0.583488	-0.106722	0.0434791	1.00471	-0.582582	0	0	0.812097	0.0395992	-0.132628	0.341162	-0.166945	0	0	0.555957	-0.0991612	0.134737	-0.299248	-0.286138	0.0577671	0.693382	1.46948	0	0	-0.356587	-0.152318	-0.592328	0.715249	1.24337	0	0
0.12	-0.0510303	1.0198	1.62139	0.923003	-0.568401	0.997366	0.602436	-0.107148	0.0483606	1.03417	-0.606782	0	0	0.792929	0.0385176	-0.141197	0.344598	-0.150851	0	0	0.550811	-0.0951398	0.137021	-0.296245	-0.286157	0.0763331	0.674103	1.47319	0	0	-0.353909	-0.152352	-0.587762	0.706288	1.24185	0	0
0.13	-0.0523258	1.02334	1.61632	0.922065	-0.556453	0.99913	0.62362	-0.106978	0.0543432	1.06419	-0.601221	0	0	0.775737	0.0369337	-0.150318	0.346016	-0.140581	0	0	0.548929	-0.0909896	0.137773	-0.293388	-0.286348	0.0965184	0.654725	1.47744	0	0	-0.352385	-0.151833	-0.586561	0.697259	1.24675	0	0
0.14	-0.0518043	1.02571	1.61206	0.920944	-0.54457	1.00092	0.645345	-0.107319	0.057079	1.09242	-0.576138	0	0	0.759345	0.0357583	-0.157349	0.344418	-0.133359	0	0	0.549114	-0.0877856	0.134884	-0.29052	-0.286881	0.119122	0.63514	1.48127	0	0	-0.351923	-0.150626	-0.590522	0.688098	1.25348	0	0
0.15	-0.0494146	1.02768	1.60847	0.919646	-0.532806	1.00272	0.666419	-0.10818	0.0569746	1.11578	-0.54456	0	0	0.743286	0.0349055	-0.161617	0.340872	-0.128906	0	0	0.549642	-0.0850678	0.129359	-0.288586	-0.287479	0.140657	0.617399	1.48544	0	0	-0.351601	-0.149747	-0.595685	0.678432	1.26119	0	0
0.16	-0.0449297	1.02984	1.60527	0.918159	-0.521068	1.0045	0.685829	-0.109115	0.0551879	1.13471	-0.506607	0	0	0.72699	0.0342318	-0.163409	0.336238	-0.126113	0	0	0.549613	-0.0824748	0.120987	-0.287847	-0.288659	0.160965	0.60235	1.49017	0	0	-0.352545	-0.149332	-0.600993	0.669966	1.27336	0	0
0.17	-0.0383214	1.03219	1.60169	0.91652	-0.509388	1.00624	0.703363	-0.110193	0.0549982	1.14578	-0.417389	0	0	0.710767	0.0336415	-0.162244	0.331438	-0.124094	0	0	0.548721	-0.0792459	0.111288	-0.289486	-0.290257	0.176596	0.591327	1.49562	0	0	-0.353884	-0.149102	-0.606954	0.662491	1.29279	0	0
0.18	-0.0290005	1.03538	1.59672	0.914909	-0.497652	1.00799	0.719179	-0.109614	0.0509868	1.15295	-0.388214	0	0	0.693798	0.0325124	-0.158789	0.32715	-0.12153	0	0	0.546641	-0.0753401	0.101542	-0.293514	-0.291062	0.185639	0.582908	1.50156	0	0	-0.354401	-0.148822	-0.614291	0.655421	1.3124	0	0
0.19	-0.0183013	1.03912	1.58997	0.913422	-0.485973	1.00975	0.733676	-0.107576	0.04693	1.15441	-0.363366	0	0	0.676283	0.0307268	-0.155101	0.323369	-0.118575	0	0	0.54396	-0.0710597	0.0933167	-0.298497	-0.290914	0.190603	0.574884	1.50659	0	0	-0.353977	-0.148168	-0.622465	0.648861	1.32268	0	0
0.2	-0.00677557	1.04216	1.58211	0.912001	-0.474456	1.01142	0.747802	-0.104716	0.0422379	1.14979	-0.342722	0	0	0.659641	0.0284991	-0.152989	0.320285	-0.115979	0	0	0.541761	-0.0664827	0.0862296	-0.304115	-0.290099	0.192157	0.567174	1.50952	0	0	-0.353964	-0.147988	-0.628285	0.643622	1.32069	0	0
0.21	0.00559573	1.04429	1.5746	0.910582	-0.462995	1.01293	0.761594	-0.101841	0.036247	1.14014	-0.322631	0	0	0.6439	0.02651	-0.150751	0.317689	-0.113223	0	0	0.540188	-0.0621929	0.078092	-0.310611	-0.289103	0.19128	0.560808	1.511	0	0	-0.355286	-0.148459	-0.632042	0.640138	1.31274	0	0
0.22	0.0181792	1.04614	1.56656	0.909296	-0.451563	1.01435	0.774492	-0.0982054	0.0304475	1.12565	-0.301107	0	0	0.627958	0.0239573	-0.149445	0.314414	-0.110394	0	0	0.538471	-0.0574835	0.0698075	-0.317713	-0.288268	0.188349	0.556202	1.5114	0	0	-0.357653	-0.149315	-0.632912	0.637729	1.30467	0	0
0.23	0.0305757	1.04742	1.55842	0.90814	-0.440278	1.01567	0.787132	-0.0938965	0.0258427	1.1077	-0.276219	0	0	0.612965	0.0209024	-0.147136	0.314912	-0.112077	0	0	0.536842	-0.0525974	0.0620332	-0.324813	-0.286915	0.182334	0.552238	1.50961	0	0	-0.360095	-0.150706	-0.63085	0.635437	1.2988	0	0
0.24	0.0433769	1.05007	1.55035	0.90707	-0.428798	1.017	0.797391	-0.0897025	0.0197236	1.08755	-0.252491	0	0	0.594874	0.0173073	-0.148872	0.304772	-0.107159	0	0	0.533803	-0.0478452	0.0544661	-0.331418	-0.284671	0.174888	0.54717	1.50582	0	0	-0.362252	-0.152479	-0.628594	0.632756	1.29497	0	0
0.25	0.0568697	1.05178	1.54383	0.905925	-0.417288	1.01813	0.807416	-0.0869201	0.0107697	1.065	-0.229236	0	0	0.577943	0.0141153	-0.147515	0.297576	-0.106178	0	0	0.531981	-0.0441553	0.0452678	-0.337979	-0.281696	0.166753	0.54126	1.50026	0	0	-0.365032	-0.154454	-0.626929	0.630643	1.29108	0	0
0.26	0.0684759	1.05085	1.53697	0.905032	-0.406116	1.01897	0.81976	-0.0835378	0.00237974	1.03797	-0.208321	0	0	0.56378	0.0104874	-0.146927	0.289581	-0.106048	0	0	0.532838	-0.040288	0.0381704	-0.344078	-0.278495	0.158076	0.535051	1.49206	0	0	-0.368152	-0.156237	-0.625577	0.629249	1.28663	0	0
